# Blender 4.2.1 LTS
# www.blender.org
mtllib beacon.mtl
o Circle.002
v 0.000000 -0.500000 -1.000000
v -0.866025 -0.500000 -0.500000
v -0.866025 -0.500000 0.500000
v 0.000000 -0.500000 1.000000
v 0.866025 -0.500000 0.500000
v 0.866025 -0.500000 -0.500000
v 0.000000 0.500000 -1.000000
v -0.866025 0.500000 -0.500000
v -0.866025 0.500000 0.500000
v 0.000000 0.500000 1.000000
v 0.866025 0.500000 0.500000
v 0.866025 0.500000 -0.500000
v 0.708974 0.500000 0.590673
v 0.157051 0.500000 0.909327
v 0.708974 -0.500000 0.590673
v 0.157051 -0.500000 0.909327
v 0.866025 0.500000 -0.318653
v 0.866025 0.500000 0.318653
v 0.866025 -0.500000 -0.318653
v 0.866025 -0.500000 0.318653
v 0.708975 -0.500000 -0.590673
v 0.157051 -0.500000 -0.909327
v 0.708975 0.500000 -0.590673
v 0.157051 0.500000 -0.909327
v -0.708974 0.500000 -0.590673
v -0.157051 0.500000 -0.909327
v -0.708974 -0.500000 -0.590673
v -0.157051 -0.500000 -0.909327
v -0.866025 0.500000 0.318653
v -0.866025 0.500000 -0.318653
v -0.866025 -0.500000 0.318653
v -0.866025 -0.500000 -0.318653
v -0.708975 0.500000 0.590673
v -0.157051 0.500000 0.909327
v -0.708975 -0.500000 0.590673
v -0.157051 -0.500000 0.909327
vn 0.5000 -0.0000 0.8660
vn 1.0000 -0.0000 -0.0000
vn 0.5000 -0.0000 -0.8660
vn -0.5000 -0.0000 -0.8660
vn -1.0000 -0.0000 -0.0000
vn -0.5000 -0.0000 0.8660
vn -0.0000 -0.0000 1.0000
vn 0.8660 -0.0000 0.5000
vn 0.8660 -0.0000 -0.5000
vn -0.0000 -0.0000 -1.0000
vn -0.8660 -0.0000 -0.5000
vn -0.8660 -0.0000 0.5000
vt 0.000000 0.000000
s 0
usemtl Material
f 10/1/1 4/1/1 16/1/1 14/1/1
f 5/1/1 11/1/1 13/1/1 15/1/1
f 11/1/2 5/1/2 20/1/2 18/1/2
f 6/1/2 12/1/2 17/1/2 19/1/2
f 12/1/3 6/1/3 21/1/3 23/1/3
f 1/1/3 7/1/3 24/1/3 22/1/3
f 26/1/4 7/1/4 1/1/4 28/1/4
f 27/1/4 2/1/4 8/1/4 25/1/4
f 30/1/5 8/1/5 2/1/5 32/1/5
f 31/1/5 3/1/5 9/1/5 29/1/5
f 4/1/6 10/1/6 34/1/6 36/1/6
f 9/1/6 3/1/6 35/1/6 33/1/6
f 28/1/7 22/1/7 24/1/7 26/1/7
f 32/1/8 27/1/8 25/1/8 30/1/8
f 31/1/9 29/1/9 33/1/9 35/1/9
f 34/1/10 14/1/10 16/1/10 36/1/10
f 15/1/11 13/1/11 18/1/11 20/1/11
f 17/1/12 23/1/12 21/1/12 19/1/12
o Circle.001
v -0.125000 -0.500000 -0.216506
v -0.250000 -0.500000 0.000000
v -0.125000 -0.500000 0.216506
v 0.125000 -0.500000 0.216506
v 0.250000 -0.500000 0.000000
v 0.125000 -0.500000 -0.216506
v -0.125000 0.500000 -0.216506
v -0.250000 0.500000 0.000000
v -0.125000 0.500000 0.216506
v 0.125000 0.500000 0.216506
v 0.250000 0.500000 0.000000
v 0.125000 0.500000 -0.216506
v 0.227332 0.500000 0.039263
v 0.147668 0.500000 0.177244
v 0.227332 -0.500000 0.039263
v 0.147668 -0.500000 0.177244
v 0.147668 0.500000 -0.177244
v 0.227332 0.500000 -0.039263
v 0.147668 -0.500000 -0.177244
v 0.227332 -0.500000 -0.039263
v 0.079663 -0.500000 -0.216506
v -0.079663 -0.500000 -0.216506
v 0.079663 0.500000 -0.216506
v -0.079663 0.500000 -0.216506
v -0.227332 0.500000 -0.039263
v -0.147668 0.500000 -0.177244
v -0.227332 -0.500000 -0.039263
v -0.147668 -0.500000 -0.177244
v -0.147668 0.500000 0.177244
v -0.227332 0.500000 0.039263
v -0.147668 -0.500000 0.177244
v -0.227332 -0.500000 0.039263
v -0.079663 0.500000 0.216506
v 0.079663 0.500000 0.216506
v -0.079663 -0.500000 0.216506
v 0.079663 -0.500000 0.216506
vn 0.8660 -0.0000 0.5000
vn 0.8660 -0.0000 -0.5000
vn -0.0000 -0.0000 -1.0000
vn -0.8660 -0.0000 -0.5000
vn -0.8660 -0.0000 0.5000
vn -0.0000 -0.0000 1.0000
vn 0.5000 -0.0000 0.8660
vn 1.0000 -0.0000 -0.0000
vn 0.5000 -0.0000 -0.8660
vn -0.5000 -0.0000 -0.8660
vn -1.0000 -0.0000 -0.0000
vn -0.5000 -0.0000 0.8660
vt 0.000000 0.000000
s 0
usemtl Material
f 46/2/13 40/2/13 52/2/13 50/2/13
f 41/2/13 47/2/13 49/2/13 51/2/13
f 47/2/14 41/2/14 56/2/14 54/2/14
f 42/2/14 48/2/14 53/2/14 55/2/14
f 48/2/15 42/2/15 57/2/15 59/2/15
f 37/2/15 43/2/15 60/2/15 58/2/15
f 62/2/16 43/2/16 37/2/16 64/2/16
f 63/2/16 38/2/16 44/2/16 61/2/16
f 66/2/17 44/2/17 38/2/17 68/2/17
f 67/2/17 39/2/17 45/2/17 65/2/17
f 40/2/18 46/2/18 70/2/18 72/2/18
f 45/2/18 39/2/18 71/2/18 69/2/18
f 64/2/19 58/2/19 60/2/19 62/2/19
f 68/2/20 63/2/20 61/2/20 66/2/20
f 67/2/21 65/2/21 69/2/21 71/2/21
f 70/2/22 50/2/22 52/2/22 72/2/22
f 51/2/23 49/2/23 54/2/23 56/2/23
f 53/2/24 59/2/24 57/2/24 55/2/24
