# Blender 4.2.1 LTS
# www.blender.org
mtllib beacon.mtl
o Circle
v 0.000000 -0.500000 0.000000
v 0.000000 -0.500000 -1.000000
v -0.866025 -0.500000 -0.500000
v -0.866025 -0.500000 0.500000
v 0.000000 -0.500000 1.000000
v 0.866025 -0.500000 0.500000
v 0.866025 -0.500000 -0.500000
v 0.000000 0.500000 0.000000
v 0.000000 0.500000 -1.000000
v -0.866025 0.500000 -0.500000
v -0.866025 0.500000 0.500000
v 0.000000 0.500000 1.000000
v 0.866025 0.500000 0.500000
v 0.866025 0.500000 -0.500000
vn -0.0000 -1.0000 -0.0000
vn -0.0000 1.0000 -0.0000
vn 0.5000 -0.0000 -0.8660
vn -0.5000 -0.0000 -0.8660
vn 1.0000 -0.0000 -0.0000
vn 0.5000 -0.0000 0.8660
vn -0.5000 -0.0000 0.8660
vn -1.0000 -0.0000 -0.0000
vt 0.500000 0.500000
vt 0.066987 0.750000
vt 0.500000 1.000000
vt 0.066987 0.250000
vt 0.500000 0.000000
vt 0.933013 0.250000
vt 0.933013 0.750000
s 0
usemtl Material
f 1/1/1 3/2/1 2/3/1
f 1/1/1 4/4/1 3/2/1
f 1/1/1 5/5/1 4/4/1
f 1/1/1 6/6/1 5/5/1
f 1/1/1 7/7/1 6/6/1
f 1/1/1 2/3/1 7/7/1
f 8/1/2 9/3/2 10/2/2
f 8/1/2 10/2/2 11/4/2
f 8/1/2 11/4/2 12/5/2
f 8/1/2 12/5/2 13/6/2
f 8/1/2 13/6/2 14/7/2
f 8/1/2 14/7/2 9/3/2
f 7/7/3 2/3/3 9/3/3 14/7/3
f 2/3/4 3/2/4 10/2/4 9/3/4
f 6/6/5 7/7/5 14/7/5 13/6/5
f 5/5/6 6/6/6 13/6/6 12/5/6
f 4/4/7 5/5/7 12/5/7 11/4/7
f 3/2/8 4/4/8 11/4/8 10/2/8
