# Blender 4.2.1 LTS
# www.blender.org
mtllib beacon.mtl
o Circle
v 0.000000 -0.500000 -0.875000
v 0.000000 -0.500000 -1.125000
v -0.757772 -0.500000 -0.437500
v -0.974279 -0.500000 -0.562500
v -0.757772 -0.500000 0.437500
v -0.974279 -0.500000 0.562500
v 0.000000 -0.500000 0.875000
v 0.000000 -0.500000 1.125000
v 0.757772 -0.500000 0.437500
v 0.974279 -0.500000 0.562500
v 0.757772 -0.500000 -0.437500
v 0.974279 -0.500000 -0.562500
v 0.000000 0.500000 -0.875000
v 0.000000 0.500000 -1.125000
v -0.757772 0.500000 -0.437500
v -0.974279 0.500000 -0.562500
v -0.757772 0.500000 0.437500
v -0.974279 0.500000 0.562500
v 0.000000 0.500000 0.875000
v 0.000000 0.500000 1.125000
v 0.757772 0.500000 0.437500
v 0.974279 0.500000 0.562500
v 0.757772 0.500000 -0.437500
v 0.974279 0.500000 -0.562500
v 0.757772 -0.375000 -0.562500
v 0.108253 -0.375000 -0.937500
v 0.108253 0.375000 -0.937500
v 0.757772 0.375000 -0.562500
v -0.108253 -0.375000 -0.937500
v -0.757772 -0.375000 -0.562500
v -0.757772 0.375000 -0.562500
v -0.108253 0.375000 -0.937500
v 0.866025 -0.375000 0.375000
v 0.866025 -0.375000 -0.375000
v 0.866025 0.375000 -0.375000
v 0.866025 0.375000 0.375000
v 0.108253 -0.375000 0.937500
v 0.757772 -0.375000 0.562500
v 0.757772 0.375000 0.562500
v 0.108253 0.375000 0.937500
v -0.757772 -0.375000 0.562500
v -0.108253 -0.375000 0.937500
v -0.108253 0.375000 0.937500
v -0.757772 0.375000 0.562500
v -0.866025 -0.375000 -0.375000
v -0.866025 -0.375000 0.375000
v -0.866025 0.375000 0.375000
v -0.866025 0.375000 -0.375000
vn -0.3780 0.6547 0.6547
vn 0.3780 0.6547 -0.6547
vn 0.5000 -0.0000 0.8660
vn 0.8660 -0.0000 -0.5000
vn -0.3780 -0.6547 0.6547
vn 0.3780 -0.6547 -0.6547
vn -1.0000 -0.0000 -0.0000
vn -0.0000 -0.0000 -1.0000
vn 0.3780 0.6547 0.6547
vn -0.3780 0.6547 -0.6547
vn 1.0000 -0.0000 -0.0000
vn 0.3780 -0.6547 0.6547
vn -0.3780 -0.6547 -0.6547
vn -0.5000 -0.0000 0.8660
vn -0.8660 -0.0000 -0.5000
vn -0.7559 0.6547 -0.0000
vn 0.7559 0.6547 -0.0000
vn 0.8660 -0.0000 0.5000
vn -0.7559 -0.6547 -0.0000
vn 0.7559 -0.6547 -0.0000
vn -0.5000 -0.0000 -0.8660
vn -0.0000 -0.0000 1.0000
vn 0.5000 -0.0000 -0.8660
vn -0.8660 -0.0000 0.5000
vt 0.933013 0.750000
vt 0.500000 1.000000
vt 0.066987 0.750000
vt 0.933013 0.250000
vt 0.500000 0.000000
vt 0.066987 0.250000
s 0
usemtl Material
f 25/1/1 26/2/1 1/2/1 11/1/1
f 26/2/2 25/1/2 12/1/2 2/2/2
f 26/2/3 27/2/3 13/2/3 1/2/3
f 27/2/4 26/2/4 2/2/4 14/2/4
f 27/2/5 28/1/5 23/1/5 13/2/5
f 28/1/6 27/2/6 14/2/6 24/1/6
f 28/1/7 25/1/7 11/1/7 23/1/7
f 25/1/8 28/1/8 24/1/8 12/1/8
f 29/2/9 30/3/9 3/3/9 1/2/9
f 30/3/10 29/2/10 2/2/10 4/3/10
f 30/3/11 31/3/11 15/3/11 3/3/11
f 31/3/8 30/3/8 4/3/8 16/3/8
f 31/3/12 32/2/12 13/2/12 15/3/12
f 32/2/13 31/3/13 16/3/13 14/2/13
f 32/2/14 29/2/14 1/2/14 13/2/14
f 29/2/15 32/2/15 14/2/15 2/2/15
f 33/4/16 34/1/16 11/1/16 9/4/16
f 34/1/17 33/4/17 10/4/17 12/1/17
f 34/1/14 35/1/14 23/1/14 11/1/14
f 35/1/18 34/1/18 12/1/18 24/1/18
f 35/1/19 36/4/19 21/4/19 23/1/19
f 36/4/20 35/1/20 24/1/20 22/4/20
f 36/4/21 33/4/21 9/4/21 21/4/21
f 33/4/4 36/4/4 22/4/4 10/4/4
f 37/5/10 38/4/10 9/4/10 7/5/10
f 38/4/9 37/5/9 8/5/9 10/4/9
f 38/4/7 39/4/7 21/4/7 9/4/7
f 39/4/22 38/4/22 10/4/22 22/4/22
f 39/4/13 40/5/13 19/5/13 21/4/13
f 40/5/12 39/4/12 22/4/12 20/5/12
f 40/5/23 37/5/23 7/5/23 19/5/23
f 37/5/18 40/5/18 20/5/18 8/5/18
f 41/6/2 42/5/2 7/5/2 5/6/2
f 42/5/1 41/6/1 6/6/1 8/5/1
f 42/5/21 43/5/21 19/5/21 7/5/21
f 43/5/24 42/5/24 8/5/24 20/5/24
f 43/5/6 44/6/6 17/6/6 19/5/6
f 44/6/5 43/5/5 20/5/5 18/6/5
f 44/6/11 41/6/11 5/6/11 17/6/11
f 41/6/22 44/6/22 18/6/22 6/6/22
f 45/3/17 46/6/17 5/6/17 3/3/17
f 46/6/16 45/3/16 4/3/16 6/6/16
f 46/6/23 47/6/23 17/6/23 5/6/23
f 47/6/15 46/6/15 6/6/15 18/6/15
f 47/6/20 48/3/20 15/3/20 17/6/20
f 48/3/19 47/6/19 18/6/19 16/3/19
f 48/3/3 45/3/3 3/3/3 15/3/3
f 45/3/24 48/3/24 16/3/24 4/3/24
o Cylinder
v 0.000000 -0.500000 -0.500000
v 0.000000 0.500000 -0.500000
v 0.097545 -0.500000 -0.490393
v 0.097545 0.500000 -0.490393
v 0.191342 -0.500000 -0.461940
v 0.191342 0.500000 -0.461940
v 0.277785 -0.500000 -0.415735
v 0.277785 0.500000 -0.415735
v 0.353553 -0.500000 -0.353553
v 0.353553 0.500000 -0.353553
v 0.415735 -0.500000 -0.277785
v 0.415735 0.500000 -0.277785
v 0.461940 -0.500000 -0.191342
v 0.461940 0.500000 -0.191342
v 0.490393 -0.500000 -0.097545
v 0.490393 0.500000 -0.097545
v 0.500000 -0.500000 0.000000
v 0.500000 0.500000 0.000000
v 0.490393 -0.500000 0.097545
v 0.490393 0.500000 0.097545
v 0.461940 -0.500000 0.191342
v 0.461940 0.500000 0.191342
v 0.415735 -0.500000 0.277785
v 0.415735 0.500000 0.277785
v 0.353553 -0.500000 0.353553
v 0.353553 0.500000 0.353553
v 0.277785 -0.500000 0.415735
v 0.277785 0.500000 0.415735
v 0.191342 -0.500000 0.461940
v 0.191342 0.500000 0.461940
v 0.097545 -0.500000 0.490393
v 0.097545 0.500000 0.490393
v 0.000000 -0.500000 0.500000
v 0.000000 0.500000 0.500000
v -0.097545 -0.500000 0.490393
v -0.097545 0.500000 0.490393
v -0.191342 -0.500000 0.461940
v -0.191342 0.500000 0.461940
v -0.277785 -0.500000 0.415735
v -0.277785 0.500000 0.415735
v -0.353553 -0.500000 0.353553
v -0.353553 0.500000 0.353553
v -0.415735 -0.500000 0.277785
v -0.415735 0.500000 0.277785
v -0.461940 -0.500000 0.191342
v -0.461940 0.500000 0.191342
v -0.490393 -0.500000 0.097545
v -0.490393 0.500000 0.097545
v -0.500000 -0.500000 0.000000
v -0.500000 0.500000 0.000000
v -0.490393 -0.500000 -0.097545
v -0.490393 0.500000 -0.097545
v -0.461940 -0.500000 -0.191342
v -0.461940 0.500000 -0.191342
v -0.415735 -0.500000 -0.277785
v -0.415735 0.500000 -0.277785
v -0.353553 -0.500000 -0.353553
v -0.353553 0.500000 -0.353553
v -0.277785 -0.500000 -0.415735
v -0.277785 0.500000 -0.415735
v -0.191342 -0.500000 -0.461940
v -0.191342 0.500000 -0.461940
v -0.097545 -0.500000 -0.490393
v -0.097545 0.500000 -0.490393
vn 0.0980 -0.0000 -0.9952
vn 0.2903 -0.0000 -0.9569
vn 0.4714 -0.0000 -0.8819
vn 0.6344 -0.0000 -0.7730
vn 0.7730 -0.0000 -0.6344
vn 0.8819 -0.0000 -0.4714
vn 0.9569 -0.0000 -0.2903
vn 0.9952 -0.0000 -0.0980
vn 0.9952 -0.0000 0.0980
vn 0.9569 -0.0000 0.2903
vn 0.8819 -0.0000 0.4714
vn 0.7730 -0.0000 0.6344
vn 0.6344 -0.0000 0.7730
vn 0.4714 -0.0000 0.8819
vn 0.2903 -0.0000 0.9569
vn 0.0980 -0.0000 0.9952
vn -0.0980 -0.0000 0.9952
vn -0.2903 -0.0000 0.9569
vn -0.4714 -0.0000 0.8819
vn -0.6344 -0.0000 0.7730
vn -0.7730 -0.0000 0.6344
vn -0.8819 -0.0000 0.4714
vn -0.9569 -0.0000 0.2903
vn -0.9952 -0.0000 0.0980
vn -0.9952 -0.0000 -0.0980
vn -0.9569 -0.0000 -0.2903
vn -0.8819 -0.0000 -0.4714
vn -0.7730 -0.0000 -0.6344
vn -0.6344 -0.0000 -0.7730
vn -0.4714 -0.0000 -0.8819
vn -0.2903 -0.0000 -0.9569
vn -0.0980 -0.0000 -0.9952
vt 1.000000 0.000000
vt 1.000000 1.000000
vt 0.968750 1.000000
vt 0.968750 0.000000
vt 0.937500 1.000000
vt 0.937500 0.000000
vt 0.906250 1.000000
vt 0.906250 0.000000
vt 0.875000 1.000000
vt 0.875000 0.000000
vt 0.843750 1.000000
vt 0.843750 0.000000
vt 0.812500 1.000000
vt 0.812500 0.000000
vt 0.781250 1.000000
vt 0.781250 0.000000
vt 0.750000 1.000000
vt 0.750000 0.000000
vt 0.718750 1.000000
vt 0.718750 0.000000
vt 0.687500 1.000000
vt 0.687500 0.000000
vt 0.656250 1.000000
vt 0.656250 0.000000
vt 0.625000 1.000000
vt 0.625000 0.000000
vt 0.593750 1.000000
vt 0.593750 0.000000
vt 0.562500 1.000000
vt 0.562500 0.000000
vt 0.531250 1.000000
vt 0.531250 0.000000
vt 0.500000 1.000000
vt 0.500000 0.000000
vt 0.468750 1.000000
vt 0.468750 0.000000
vt 0.437500 1.000000
vt 0.437500 0.000000
vt 0.406250 1.000000
vt 0.406250 0.000000
vt 0.375000 1.000000
vt 0.375000 0.000000
vt 0.343750 1.000000
vt 0.343750 0.000000
vt 0.312500 1.000000
vt 0.312500 0.000000
vt 0.281250 1.000000
vt 0.281250 0.000000
vt 0.250000 1.000000
vt 0.250000 0.000000
vt 0.218750 1.000000
vt 0.218750 0.000000
vt 0.187500 1.000000
vt 0.187500 0.000000
vt 0.156250 1.000000
vt 0.156250 0.000000
vt 0.125000 1.000000
vt 0.125000 0.000000
vt 0.093750 1.000000
vt 0.093750 0.000000
vt 0.062500 1.000000
vt 0.062500 0.000000
vt 0.031250 1.000000
vt 0.031250 0.000000
vt 0.000000 1.000000
vt 0.000000 0.000000
s 0
usemtl Material
f 49/7/25 50/8/25 52/9/25 51/10/25
f 51/10/26 52/9/26 54/11/26 53/12/26
f 53/12/27 54/11/27 56/13/27 55/14/27
f 55/14/28 56/13/28 58/15/28 57/16/28
f 57/16/29 58/15/29 60/17/29 59/18/29
f 59/18/30 60/17/30 62/19/30 61/20/30
f 61/20/31 62/19/31 64/21/31 63/22/31
f 63/22/32 64/21/32 66/23/32 65/24/32
f 65/24/33 66/23/33 68/25/33 67/26/33
f 67/26/34 68/25/34 70/27/34 69/28/34
f 69/28/35 70/27/35 72/29/35 71/30/35
f 71/30/36 72/29/36 74/31/36 73/32/36
f 73/32/37 74/31/37 76/33/37 75/34/37
f 75/34/38 76/33/38 78/35/38 77/36/38
f 77/36/39 78/35/39 80/37/39 79/38/39
f 79/38/40 80/37/40 82/39/40 81/40/40
f 81/40/41 82/39/41 84/41/41 83/42/41
f 83/42/42 84/41/42 86/43/42 85/44/42
f 85/44/43 86/43/43 88/45/43 87/46/43
f 87/46/44 88/45/44 90/47/44 89/48/44
f 89/48/45 90/47/45 92/49/45 91/50/45
f 91/50/46 92/49/46 94/51/46 93/52/46
f 93/52/47 94/51/47 96/53/47 95/54/47
f 95/54/48 96/53/48 98/55/48 97/56/48
f 97/56/49 98/55/49 100/57/49 99/58/49
f 99/58/50 100/57/50 102/59/50 101/60/50
f 101/60/51 102/59/51 104/61/51 103/62/51
f 103/62/52 104/61/52 106/63/52 105/64/52
f 105/64/53 106/63/53 108/65/53 107/66/53
f 107/66/54 108/65/54 110/67/54 109/68/54
f 109/68/55 110/67/55 112/69/55 111/70/55
f 111/70/56 112/69/56 50/71/56 49/72/56
