# Blender 4.2.1 LTS
# www.blender.org
mtllib beacon.mtl
o Circle
v 0.000000 -0.500000 -1.000000
v -0.866025 -0.500000 -0.500000
v -0.866025 -0.500000 0.500000
v 0.000000 -0.500000 1.000000
v 0.866025 -0.500000 0.500000
v 0.866025 -0.500000 -0.500000
v 0.000000 0.500000 -1.000000
v -0.866025 0.500000 -0.500000
v -0.866025 0.500000 0.500000
v 0.000000 0.500000 1.000000
v 0.866025 0.500000 0.500000
v 0.866025 0.500000 -0.500000
v 0.708974 0.500000 0.590673
v 0.157051 0.500000 0.909327
v 0.708974 -0.500000 0.590673
v 0.157051 -0.500000 0.909327
v 0.866025 0.500000 -0.318653
v 0.866025 0.500000 0.318653
v 0.866025 -0.500000 -0.318653
v 0.866025 -0.500000 0.318653
v 0.708975 -0.500000 -0.590673
v 0.157051 -0.500000 -0.909327
v 0.708975 0.500000 -0.590673
v 0.157051 0.500000 -0.909327
v -0.708974 0.500000 -0.590673
v -0.157051 0.500000 -0.909327
v -0.708974 -0.500000 -0.590673
v -0.157051 -0.500000 -0.909327
v -0.866025 0.500000 0.318653
v -0.866025 0.500000 -0.318653
v -0.866025 -0.500000 0.318653
v -0.866025 -0.500000 -0.318653
v -0.708975 0.500000 0.590673
v -0.157051 0.500000 0.909327
v -0.708975 -0.500000 0.590673
v -0.157051 -0.500000 0.909327
vn 0.5000 -0.0000 0.8660
vn 1.0000 -0.0000 -0.0000
vn 0.5000 -0.0000 -0.8660
vn -0.5000 -0.0000 -0.8660
vn -1.0000 -0.0000 -0.0000
vn -0.5000 -0.0000 0.8660
vn -0.0000 -0.0000 1.0000
vn 0.8660 -0.0000 0.5000
vn 0.8660 -0.0000 -0.5000
vn -0.0000 -0.0000 -1.0000
vn -0.8660 -0.0000 -0.5000
vn -0.8660 -0.0000 0.5000
vt 0.000000 0.000000
s 0
usemtl Material
f 10/1/1 4/1/1 16/1/1 14/1/1
f 5/1/1 11/1/1 13/1/1 15/1/1
f 11/1/2 5/1/2 20/1/2 18/1/2
f 6/1/2 12/1/2 17/1/2 19/1/2
f 12/1/3 6/1/3 21/1/3 23/1/3
f 1/1/3 7/1/3 24/1/3 22/1/3
f 26/1/4 7/1/4 1/1/4 28/1/4
f 27/1/4 2/1/4 8/1/4 25/1/4
f 30/1/5 8/1/5 2/1/5 32/1/5
f 31/1/5 3/1/5 9/1/5 29/1/5
f 4/1/6 10/1/6 34/1/6 36/1/6
f 9/1/6 3/1/6 35/1/6 33/1/6
f 28/1/7 22/1/7 24/1/7 26/1/7
f 32/1/8 27/1/8 25/1/8 30/1/8
f 31/1/9 29/1/9 33/1/9 35/1/9
f 34/1/10 14/1/10 16/1/10 36/1/10
f 15/1/11 13/1/11 18/1/11 20/1/11
f 17/1/12 23/1/12 21/1/12 19/1/12
