# Blender 4.2.1 LTS
# www.blender.org
mtllib beacon.mtl
o Circle.001
v -0.549509 0.000000 -0.835488
v -0.998308 0.000000 0.058145
v -0.448799 0.000000 0.893633
v 0.549509 0.000000 0.835488
v 0.998308 0.000000 -0.058145
v 0.448799 0.000000 -0.893633
v -0.549509 1.000000 -0.835488
v -0.998308 1.000000 0.058145
v -0.448799 1.000000 0.893633
v 0.549509 1.000000 0.835488
v 0.998308 1.000000 -0.058145
v 0.448799 1.000000 -0.893633
v 0.208477 0.000000 -0.879635
v 0.610766 0.000000 -0.647374
v 0.208477 1.000000 -0.879635
v 0.610766 1.000000 -0.647374
v 0.866025 1.000000 -0.259271
v 0.866025 1.000000 0.205252
v 0.866025 0.000000 -0.259271
v 0.866025 0.000000 0.205252
v -0.657548 1.000000 -0.620364
v -0.255259 1.000000 -0.852626
v -0.657548 0.000000 -0.620364
v -0.255259 0.000000 -0.852626
v 0.657548 0.000000 0.620364
v 0.255259 0.000000 0.852626
v -0.866025 1.000000 -0.205252
v -0.866025 1.000000 0.259271
v -0.866025 0.000000 -0.205252
v -0.866025 0.000000 0.259271
v -0.208477 0.000000 0.879635
v -0.610766 0.000000 0.647374
v -0.610766 1.000000 0.647374
v -0.208477 1.000000 0.879635
v 0.657548 1.000000 0.620364
v 0.255259 1.000000 0.852626
vn -0.0581 -0.0000 -0.9983
vn 0.8936 -0.0000 0.4488
vn 0.0581 -0.0000 0.9983
vn -0.8936 -0.0000 -0.4488
vn 0.8355 -0.0000 -0.5495
vn -0.8355 -0.0000 0.5495
vn -0.5000 -0.0000 -0.8660
vn 1.0000 -0.0000 -0.0000
vn 0.5000 -0.0000 -0.8660
vn 0.5000 -0.0000 0.8660
vn -0.5000 -0.0000 0.8660
vn -1.0000 -0.0000 -0.0000
vt 0.000000 0.000000
s 0
usemtl Material
f 4/1/1 26/1/1 36/1/1 10/1/1
f 2/1/2 29/1/2 27/1/2 8/1/2
f 1/1/3 24/1/3 22/1/3 7/1/3
f 5/1/4 20/1/4 18/1/4 11/1/4
f 3/1/5 32/1/5 33/1/5 9/1/5
f 6/1/6 14/1/6 16/1/6 12/1/6
f 21/1/2 23/1/2 1/1/2 7/1/2
f 21/1/7 22/1/7 24/1/7 23/1/7
f 35/1/4 25/1/4 4/1/4 10/1/4
f 17/1/8 18/1/8 20/1/8 19/1/8
f 34/1/1 31/1/1 3/1/1 9/1/1
f 15/1/9 16/1/9 14/1/9 13/1/9
f 17/1/6 19/1/6 5/1/6 11/1/6
f 35/1/10 36/1/10 26/1/10 25/1/10
f 15/1/3 13/1/3 6/1/3 12/1/3
f 34/1/11 33/1/11 32/1/11 31/1/11
f 28/1/5 30/1/5 2/1/5 8/1/5
f 28/1/12 27/1/12 29/1/12 30/1/12
